<svg width="80" height="80" viewBox="0 0 80 80" fill="none" xmlns="http://www.w3.org/2000/svg">
<path fill-rule="evenodd" clip-rule="evenodd" d="M80 40C80 50.6087 75.7857 60.7828 68.2843 68.2843C60.7828 75.7857 50.6087 80 40 80C29.3913 80 19.2172 75.7857 11.7157 68.2843C4.21427 60.7828 0 50.6087 0 40C0 29.3913 4.21427 19.2172 11.7157 11.7157C19.2172 4.21427 29.3913 0 40 0C50.6087 0 60.7828 4.21427 68.2843 11.7157C75.7857 19.2172 80 29.3913 80 40ZM50 25C50 27.6522 48.9464 30.1957 47.0711 32.0711C45.1957 33.9464 42.6522 35 40 35C37.3478 35 34.8043 33.9464 32.9289 32.0711C31.0536 30.1957 30 27.6522 30 25C30 22.3478 31.0536 19.8043 32.9289 17.9289C34.8043 16.0536 37.3478 15 40 15C42.6522 15 45.1957 16.0536 47.0711 17.9289C48.9464 19.8043 50 22.3478 50 25ZM40 45C35.213 44.999 30.5264 46.3724 26.4971 48.957C22.4678 51.5416 19.2652 55.2286 17.27 59.58C20.0834 62.853 23.5714 65.4788 27.4947 67.2774C31.4181 69.076 35.684 70.0047 40 70C44.316 70.0047 48.5819 69.076 52.5053 67.2774C56.4286 65.4788 59.9166 62.853 62.73 59.58C60.7348 55.2286 57.5322 51.5416 53.5029 48.957C49.4736 46.3724 44.787 44.999 40 45Z" fill="black" fill-opacity="0.7"/>
</svg>
