<svg width="21" height="21" viewBox="0 0 21 21" fill="none" xmlns="http://www.w3.org/2000/svg">
<g clip-path="url(#clip0_124_768)">
<path d="M10.7058 12.8176C11.2362 12.8176 11.745 12.6069 12.12 12.2318C12.4951 11.8568 12.7058 11.3481 12.7058 10.8176C12.7058 10.2872 12.4951 9.77849 12.12 9.40341C11.745 9.02834 11.2362 8.81763 10.7058 8.81763C10.1754 8.81763 9.66667 9.02834 9.2916 9.40341C8.91652 9.77849 8.70581 10.2872 8.70581 10.8176C8.70581 11.3481 8.91652 11.8568 9.2916 12.2318C9.66667 12.6069 10.1754 12.8176 10.7058 12.8176Z" fill="rgb(0,0,0,0.7)"/>
<path fill-rule="evenodd" clip-rule="evenodd" d="M1.16382 10.8176C2.43782 6.76063 6.22782 3.81763 10.7058 3.81763C15.1838 3.81763 18.9738 6.76063 20.2478 10.8176C18.9738 14.8746 15.1838 17.8176 10.7058 17.8176C6.22782 17.8176 2.43782 14.8746 1.16382 10.8176ZM14.7058 10.8176C14.7058 11.8785 14.2844 12.8959 13.5342 13.6461C12.7841 14.3962 11.7667 14.8176 10.7058 14.8176C9.64495 14.8176 8.62754 14.3962 7.87739 13.6461C7.12725 12.8959 6.70582 11.8785 6.70582 10.8176C6.70582 9.75676 7.12725 8.73935 7.87739 7.9892C8.62754 7.23905 9.64495 6.81763 10.7058 6.81763C11.7667 6.81763 12.7841 7.23905 13.5342 7.9892C14.2844 8.73935 14.7058 9.75676 14.7058 10.8176Z" fill="rgb(0,0,0,0.7)"/>
</g>
<defs>
<clipPath id="clip0_124_768">
<rect width="20" height="20" fill="white" transform="translate(0.705811 0.817627)"/>
</clipPath>
</defs>
</svg>
