<svg width="21" height="21" viewBox="0 0 21 21" fill="none" xmlns="http://www.w3.org/2000/svg">
<g clip-path="url(#clip0_124_771)">
<path fill-rule="evenodd" clip-rule="evenodd" d="M3.82862 2.92744C3.64002 2.74528 3.38742 2.64449 3.12522 2.64677C2.86302 2.64904 2.61221 2.75421 2.4268 2.93962C2.2414 3.12503 2.13623 3.37584 2.13395 3.63804C2.13167 3.90024 2.23246 4.15284 2.41462 4.34144L16.4146 18.3414C16.6032 18.5236 16.8558 18.6244 17.118 18.6221C17.3802 18.6198 17.631 18.5147 17.8164 18.3293C18.0018 18.1439 18.107 17.893 18.1093 17.6308C18.1116 17.3686 18.0108 17.116 17.8286 16.9274L16.3556 15.4544C17.9132 14.2126 19.0649 12.5344 19.6636 10.6344C18.3896 6.57744 14.5996 3.63444 10.1216 3.63444C8.55405 3.63231 7.00813 4.00029 5.60962 4.70844L3.82862 2.92744ZM8.08962 7.18744L9.60362 8.70244C9.94271 8.61239 10.2995 8.61299 10.6383 8.70417C10.9771 8.79535 11.286 8.97392 11.5341 9.22201C11.7821 9.47009 11.9607 9.77898 12.0519 10.1178C12.1431 10.4566 12.1437 10.8134 12.0536 11.1524L13.5676 12.6664C14.0186 11.9025 14.2028 11.0102 14.0913 10.1301C13.9797 9.25 13.5788 8.43193 12.9514 7.80462C12.3241 7.1773 11.5061 6.77633 10.6259 6.66479C9.74583 6.55324 8.8536 6.73645 8.08962 7.18744Z" fill="rgb(0,0,0,0.7)"/>
<path d="M12.5756 17.3314L9.87159 14.6264C8.89928 14.5655 7.98262 14.1518 7.29365 13.463C6.60468 12.7742 6.19076 11.8577 6.12959 10.8854L2.45659 7.2124C1.6118 8.21842 0.973939 9.38132 0.57959 10.6344C1.85359 14.6914 5.64459 17.6344 10.1216 17.6344C10.9686 17.6344 11.7906 17.5294 12.5756 17.3314Z" fill="rgb(0,0,0,0.7)"/>
</g>
<defs>
<clipPath id="clip0_124_771">
<rect width="20" height="20" fill="white" transform="translate(0.121582 0.634521)"/>
</clipPath>
</defs>
</svg>
