<svg width="25" height="25" viewBox="0 0 25 25" fill="none" xmlns="http://www.w3.org/2000/svg">
<path d="M21.9644 21.7637L15.9644 15.7637M17.9644 10.7637C17.9644 11.6829 17.7833 12.5932 17.4315 13.4425C17.0797 14.2917 16.5641 15.0634 15.9141 15.7134C15.2641 16.3634 14.4924 16.879 13.6431 17.2308C12.7939 17.5826 11.8836 17.7637 10.9644 17.7637C10.0451 17.7637 9.13485 17.5826 8.28557 17.2308C7.43629 16.879 6.66462 16.3634 6.01461 15.7134C5.3646 15.0634 4.84898 14.2917 4.4972 13.4425C4.14542 12.5932 3.96436 11.6829 3.96436 10.7637C3.96436 8.90716 4.70185 7.12668 6.01461 5.81392C7.32736 4.50117 9.10784 3.76367 10.9644 3.76367C12.8209 3.76367 14.6013 4.50117 15.9141 5.81392C17.2269 7.12668 17.9644 8.90716 17.9644 10.7637Z" stroke="black" stroke-width="2" stroke-linecap="round" stroke-linejoin="round"/>
</svg>
